<?xml version="1.0" encoding="UTF-8"?>
<svg id="Layer_2" data-name="Layer 2" xmlns="http://www.w3.org/2000/svg" viewBox="0 0 493.57 510.91">
  <g id="Layer_2-2" data-name="Layer 2">
    <path d="M266.78,0c.87,.39,1.71,.87,2.61,1.15,15.55,4.88,24.67,17.43,24.95,34.55,.11,6.45,.02,12.91,.02,20.1,7.96,0,15.4-.22,22.83,.05,15.47,.55,29.14,10.39,31.23,25.72,1.95,14.29,1.93,29.29-.09,43.57-2.18,15.42-16.34,25.28-31.92,25.54-7.12,.12-14.23,.02-22.06,.02,0,7.07,.1,13.66-.02,20.25-.31,16.53-9.15,29.09-23.74,33.85-1.26,.41-2.56,.93-3.85,.94-13.42,.06-27.01,1.33-40.23-.31-16.3-2.03-27.28-16.57-27.49-33.09-.09-6.96-.01-13.93-.01-21.59-6.41,0-12.52-.35-18.58,.06-20.24,1.37-38.14-14.39-37.23-37.42,.39-9.79-.28-19.69,.94-29.36,2-15.86,15.53-27.54,31.42-28.15,7.6-.29,15.22-.05,23.44-.05,0-6.39,0-12.15,0-17.92,0-19.99,8.09-31.1,27.11-37.29,.29-.09,.5-.41,.75-.62,13.31,0,26.61,0,39.92,0Z"/>
    <path d="M341.63,354.85c7.91-10.62,14.71-20.42,22.2-29.67,17.68-21.83,35.74-43.35,53.47-65.14,1.96-2.41,3.96-5.86,3.74-8.66-.18-2.44-3.03-5.42-5.47-6.77-3.32-1.84-6.8-.31-9.32,2.62-9,10.46-18.07,20.86-26.93,31.44-7.56,9.02-14.86,18.26-22.49,27.67-1.53-7.49-2.74-14.62-4.52-21.6-1.09-4.29-4.28-6.74-8.94-6.3-4.39,.42-6.94,3.24-7.49,7.41-.27,2.03,.46,4.26,1.04,6.31,3.45,12.29,3.37,24.64,.35,36.94-.81,3.29-2.25,6.68-4.27,9.39-33.95,45.71-63.86,93.94-90.24,144.37-2.01,3.84-4.74,6.55-9.37,6.01-4.58-.53-6.66-3.68-7.87-7.87-22.95-79.23-8.7-151.69,41.28-216.66,36.62-47.6,85.5-76.45,144.66-87.22,11.71-2.13,23.75-2.92,35.67-3.31,15.92-.51,28.98,9.05,34.1,24.17,10.6,31.26,14.49,63.38,11.22,96.24-6.34,63.55-33.78,116.5-81.47,158.71-35.51,31.43-77.1,50.16-124.26,56.07-8.06,1.01-16.2,1.6-24.33,1.89-7.88,.28-12-6.15-8.42-13.05,20.52-39.54,43.22-77.8,68.19-114.71,.99-1.46,2.43-2.79,3.96-3.69,15.1-8.9,31.2-11.8,48.39-7.79,1.13,.26,2.24,.63,3.37,.84,5.14,.96,9.18-1.42,10.4-6.08,1.08-4.1-1.48-8.56-6.14-10.04-10.62-3.37-21.51-3.96-32.53-2.71-2.23,.25-4.44,.65-7.99,1.17Z"/>
    <path d="M136.92,305.98c-12.91-15.49-25.54-30.69-38.23-45.85-3.31-3.95-6.76-7.79-10.18-11.64-4.5-5.05-9.46-5.93-13.41-2.45-4.09,3.62-3.72,8.23,.68,13.58,19.97,24.26,39.93,48.52,59.72,72.92,5.6,6.91,10.61,14.3,16.54,22.36-12.87-2.26-24.56-2.6-36.17,.31-1.29,.32-2.57,.64-3.84,1.04-5,1.57-7.8,5.77-6.73,10.07,1.2,4.83,5.34,6.87,10.83,6.21,8.35-1,16.79-2.28,25.15-2,9.92,.32,19,4.41,27.41,9.67,1.33,.83,2.4,2.27,3.28,3.63,8.06,12.4,16.57,24.55,23.8,37.42,2.83,5.03,3.21,11.67,3.84,17.66,2.02,19.08,6.41,37.58,12.6,55.7,3.48,10.2-1.02,15.29-11.62,13.67C105.05,493.67,29.35,420.24,6.99,329.14c-10.76-43.84-9.13-87.26,5.1-130.12,5.43-16.36,18.21-25.8,35.34-25.25,64.87,2.1,119.81,26.86,164.82,73.5,7.13,7.39,13.24,15.78,19.87,23.66,3.45,4.09,3.62,8.18,.93,12.81-15.55,26.82-26.1,55.47-31.28,86.07-.7,4.16-2.86,7.13-7.09,8.04-4.09,.88-7-1.11-9.27-4.37-8.85-12.67-18.46-24.89-26.28-38.16-3.49-5.92-4.48-13.91-4.68-21.02-.22-8.01,1.47-16.12,2.81-24.11,.97-5.81-.83-10.25-5.59-11.58-4.75-1.32-9.23,1.46-10.63,7.17-1.6,6.55-2.72,13.22-4.13,20.2Z"/>
  </g>
</svg>