<svg width="52" height="52" viewBox="0 0 52 52" fill="none" xmlns="http://www.w3.org/2000/svg">
<g clip-path="url(#clip0_49_34)">
<path d="M25.4594 0C25.544 0.0379276 25.6257 0.0846078 25.7132 0.111838C27.2255 0.586419 28.1124 1.80691 28.1396 3.47184C28.1503 4.0991 28.1416 4.72734 28.1416 5.42657C28.9157 5.42657 29.6392 5.40517 30.3618 5.43143C31.8663 5.48492 33.1957 6.44186 33.3989 7.93271C33.5886 9.32241 33.5866 10.7812 33.3902 12.1699C33.1782 13.6695 31.8011 14.6284 30.2859 14.6537C29.5935 14.6653 28.9021 14.6556 28.1406 14.6556C28.1406 15.3432 28.1503 15.9841 28.1387 16.6249C28.1085 18.2325 27.2488 19.454 25.8299 19.9169C25.7074 19.9567 25.581 20.0073 25.4555 20.0083C24.1504 20.0141 22.8288 20.1376 21.5431 19.9781C19.958 19.7807 18.8902 18.3667 18.8697 16.7601C18.861 16.0833 18.8688 15.4054 18.8688 14.6605C18.2454 14.6605 17.6512 14.6264 17.0619 14.6663C15.0935 14.7996 13.3527 13.2669 13.4412 11.0272C13.4791 10.0751 13.414 9.11235 13.5326 8.17194C13.7271 6.62955 15.0429 5.49367 16.5882 5.43435C17.3273 5.40614 18.0684 5.42948 18.8678 5.42948C18.8678 4.80806 18.8678 4.24789 18.8678 3.68676C18.8678 1.74273 19.6545 0.662275 21.5042 0.0602952C21.5324 0.0515427 21.5529 0.0204226 21.5772 0C22.8716 0 24.165 0 25.4594 0Z" fill="#CACACA"/>
<path d="M32.7386 34.5092C33.5078 33.4764 34.1691 32.5234 34.8975 31.6238C36.6169 29.5008 38.3733 27.408 40.0975 25.2889C40.2881 25.0545 40.4826 24.719 40.4612 24.4467C40.4437 24.2094 40.1666 23.9196 39.9293 23.7883C39.6064 23.6094 39.268 23.7582 39.0229 24.0431C38.1476 25.0604 37.2656 26.0718 36.4039 27.1007C35.6687 27.9779 34.9588 28.8765 34.2168 29.7916C34.068 29.0632 33.9503 28.3698 33.7772 27.691C33.6712 27.2738 33.361 27.0355 32.9078 27.0783C32.4809 27.1192 32.2329 27.3934 32.1794 27.7989C32.1531 27.9964 32.2241 28.2132 32.2805 28.4126C32.616 29.6078 32.6083 30.8088 32.3146 32.005C32.2358 32.325 32.0958 32.6546 31.8993 32.9182C28.5977 37.3635 25.6889 42.0539 23.1234 46.9582C22.928 47.3317 22.6625 47.5952 22.2122 47.5427C21.7668 47.4912 21.5645 47.1848 21.4468 46.7773C19.215 39.0722 20.6008 32.0254 25.4613 25.7071C29.0226 21.078 33.7762 18.2723 39.5296 17.2249C40.6684 17.0178 41.8393 16.9409 42.9985 16.903C44.5467 16.8534 45.8168 17.7831 46.3147 19.2536C47.3456 22.2936 47.7239 25.4173 47.4059 28.6129C46.7893 34.7932 44.1208 39.9426 39.4829 44.0475C36.0295 47.1041 31.9849 48.9256 27.3986 49.5003C26.6147 49.5986 25.8231 49.6559 25.0325 49.6841C24.2661 49.7114 23.8655 49.0861 24.2136 48.415C26.2092 44.5698 28.4168 40.849 30.8451 37.2594C30.9414 37.1175 31.0814 36.9881 31.2302 36.9006C32.6987 36.0351 34.2644 35.753 35.9362 36.143C36.0461 36.1683 36.154 36.2043 36.2639 36.2247C36.7638 36.3181 37.1567 36.0866 37.2753 35.6334C37.3803 35.2347 37.1314 34.801 36.6782 34.657C35.6454 34.3293 34.5863 34.2719 33.5146 34.3935C33.2978 34.4178 33.0828 34.4567 32.7376 34.5073L32.7386 34.5092Z" fill="#CACACA"/>
<path d="M12.8305 29.7567C11.575 28.2502 10.3468 26.772 9.11264 25.2977C8.79075 24.9136 8.45523 24.5401 8.12264 24.1657C7.68501 23.6746 7.20265 23.589 6.81851 23.9275C6.42076 24.2795 6.45674 24.7278 6.88464 25.2481C8.82673 27.6074 10.7678 29.9667 12.6924 32.3396C13.237 33.0116 13.7243 33.7303 14.3009 34.5141C13.0493 34.2943 11.9125 34.2613 10.7834 34.5443C10.658 34.5754 10.5335 34.6065 10.41 34.6454C9.92371 34.7981 9.65141 35.2066 9.75547 35.6247C9.87217 36.0945 10.2748 36.2928 10.8087 36.2287C11.6207 36.1314 12.4415 36.0069 13.2545 36.0342C14.2193 36.0653 15.1023 36.463 15.9202 36.9746C16.0495 37.0553 16.1536 37.1953 16.2391 37.3276C17.023 38.5335 17.8506 39.7151 18.5537 40.9667C18.8289 41.4559 18.8659 42.1016 18.9271 42.6841C19.1236 44.5397 19.5505 46.3388 20.1525 48.101C20.4909 49.0929 20.0533 49.5879 19.0225 49.4304C9.73116 48.0096 2.36931 40.8685 0.194792 32.009C-0.851621 27.7455 -0.693103 23.5229 0.690768 19.3548C1.21884 17.7637 2.4617 16.8457 4.12759 16.8992C10.4362 17.1034 15.7792 19.5113 20.1564 24.0471C20.8498 24.7658 21.444 25.5817 22.0888 26.348C22.4243 26.7458 22.4408 27.1435 22.1792 27.5938C20.667 30.2021 19.641 32.9883 19.1372 35.9641C19.0691 36.3687 18.8591 36.6575 18.4477 36.746C18.0499 36.8316 17.767 36.6381 17.5462 36.321C16.6855 35.0889 15.751 33.9005 14.9905 32.61C14.6511 32.0343 14.5548 31.2572 14.5353 30.5658C14.5139 29.7868 14.6783 28.9981 14.8086 28.2211C14.9029 27.656 14.7279 27.2243 14.265 27.0949C13.803 26.9665 13.3673 27.2369 13.2312 27.7922C13.0756 28.4292 12.9667 29.0778 12.8296 29.7567H12.8305Z" fill="#CACACA"/>
</g>
<defs>
<clipPath id="clip0_49_34">
<rect width="51.1876" height="51.1876" fill="white"/>
</clipPath>
</defs>
</svg>
