<?xml version="1.0" encoding="UTF-8"?>
<svg id="Layer_2" data-name="Layer 2" xmlns="http://www.w3.org/2000/svg" viewBox="0 0 449.87 447.01">
  <g id="Layer_2-2" data-name="Layer 2">
    <path d="M206.51,0c7.46,2.08,15.31,3.29,22.31,6.4,32.63,14.5,50.42,39.69,52.77,75.5,.06,.97-.18,1.96-.28,2.94,0,0,.1-.09,.1-.09-7.02,0-14.04-.01-21.06-.02l.11,.13c-.3-2.97-.56-5.94-.92-8.9-4.2-34.89-40-60.65-74.4-53.54-31.11,6.43-51.14,30.23-52.54,62.44l.11-.13c-7.02,0-14.04,.01-21.06,.02l.1,.09c-.8-19.41,5.65-36.51,17.3-51.64C142.9,15.21,161.25,4.44,183.77,.93c.95-.15,1.85-.61,2.78-.93,6.65,0,13.31,0,19.96,0Z"/>
    <path d="M281.31,84.84c11.29,.28,22.68-.32,33.84,1.03,24.81,3.01,43.13,22.58,46,47.21,3.03,26.04,6.48,52.04,9.71,78.06,.16,1.27,.02,2.57,.02,4.21-32.32-5.66-62.66-.95-90.76,15.84-23.23,13.89-40.02,33.48-51.39,58.02-19.8,42.71-15.64,115.38,45.56,157.79-2.36,0-3.94,0-5.52,0-71.33,0-142.67,0-214,0-35.11,0-58.96-28.09-54.16-62.94,4.21-30.58,7.6-61.27,11.43-91.9,4.16-33.26,8.41-66.52,12.63-99.77,2.67-21.07,4.76-42.24,8.18-63.18,4.24-25.91,25.74-43.7,51.96-44.21,8.98-.17,17.96-.11,26.93-.15,0,0-.1-.09-.1-.09-.03,21.28-.05,42.55-.1,63.83-.01,4.85,2.18,8.29,6.62,10.13,7.4,3.07,14.41-2.24,14.46-11.15,.12-20.94,.06-41.88,.08-62.82l-.11,.13c42.62,0,85.24,0,127.86,0l-.11-.13c.03,.5,.07,.99,.07,1.49,0,20.61-.08,41.23,.01,61.84,.03,6.74,4.66,11.54,10.59,11.56,5.94,.02,10.45-4.81,10.46-11.53,.03-21.11-.04-42.22-.07-63.33l-.1,.09Z"/>
    <path d="M132.71,84.74c-.01,20.94,.04,41.88-.08,62.82-.05,8.91-7.06,14.22-14.46,11.15-4.44-1.84-6.63-5.27-6.62-10.13,.05-21.28,.07-42.55,.1-63.83,7.02,0,14.04-.01,21.06-.02Z"/>
    <path d="M281.4,84.75c.03,21.11,.1,42.22,.07,63.33,0,6.72-4.52,11.55-10.46,11.53-5.93-.02-10.56-4.82-10.59-11.56-.1-20.61-.02-41.22-.01-61.84,0-.5-.05-.99-.07-1.49,7.02,0,14.04,.01,21.06,.02Z"/>
    <circle cx="345.64" cy="340.48" r="104.23"/>
  </g>
</svg>