<svg width="47" height="52" viewBox="0 0 47 52" fill="none" xmlns="http://www.w3.org/2000/svg">
<path d="M0.998047 50.6598V2.07213C1.17635 1.48014 1.55899 1.06143 2.09789 0.772949H38.7795C39.633 1.18564 39.8824 1.8758 39.8804 2.80036C39.8593 13.4292 39.8674 24.0581 39.8674 34.6869V35.34C37.6166 35.4462 35.6483 36.1594 33.8883 37.5628C33.5858 36.2756 32.9497 35.2519 31.8479 34.5637C30.749 33.8776 29.566 33.6782 28.3079 34.0148C26.1443 34.5928 24.775 36.5691 24.9894 38.8449C25.0885 39.8897 25.5333 40.7952 26.2885 41.5314C27.4866 42.6984 28.933 43.046 30.5807 42.7315C29.8145 46.2143 30.6278 49.2374 32.9998 51.9439H32.3127C22.5693 51.9439 12.8249 51.9349 3.08155 51.957C2.06083 51.959 1.34463 51.6504 0.998047 50.6588L0.998047 50.6598ZM21.9923 26.365C21.9923 20.434 21.9923 14.503 21.9923 8.57205C21.9923 8.40578 22.0023 8.23749 21.9873 8.07222C21.8942 7.06452 20.8734 6.43146 19.9449 6.80008C19.3178 7.0495 18.9963 7.60743 18.9953 8.45987C18.9953 20.3879 18.9953 32.317 18.9953 44.245C18.9953 44.3612 18.9903 44.4794 19.0033 44.5946C19.1015 45.4961 19.8046 46.0711 20.6921 45.9769C21.4694 45.8948 21.9903 45.2517 21.9903 44.3562C21.9923 38.3591 21.9903 32.361 21.9913 26.364L21.9923 26.365ZM33.9374 26.3469C33.9334 23.8527 31.923 21.8544 29.4248 21.8604C26.9617 21.8674 24.9733 23.8718 24.9723 26.3479C24.9713 28.8351 27.0138 30.8765 29.4759 30.8475C31.943 30.8184 33.9414 28.802 33.9374 26.3459V26.3469ZM16.0233 38.3331C16.0093 35.8339 13.9999 33.8455 11.5017 33.8595C9.04757 33.8736 7.06424 35.893 7.07125 38.3721C7.07826 40.8363 9.08564 42.8497 11.5408 42.8557C14.0119 42.8607 16.0363 40.8182 16.0233 38.3331ZM33.9384 14.3327C33.9274 11.8345 31.925 9.85321 29.4168 9.86022C26.9316 9.86723 24.9563 11.8856 24.9733 14.4009C24.9894 16.8379 26.9827 18.8203 29.4358 18.8363C31.903 18.8533 33.9494 16.8069 33.9394 14.3317L33.9384 14.3327ZM16.0233 26.363C16.0313 23.8808 14.049 21.8694 11.5868 21.8604C9.07963 21.8514 7.08027 23.8307 7.07125 26.3319C7.06224 28.8211 9.08664 30.8605 11.5558 30.8495C14.0179 30.8375 16.0153 28.8321 16.0233 26.363ZM16.0233 14.3498C16.0263 11.8646 14.05 9.86823 11.5788 9.86022C9.0676 9.85221 7.07526 11.8305 7.07125 14.3347C7.06724 16.8279 9.09165 18.8563 11.5648 18.8363C14.041 18.8163 16.0213 16.8239 16.0243 14.3488L16.0233 14.3498Z" fill="#CACACA"/>
<path d="M2.09789 0.772949C1.55899 1.06143 1.17635 1.48014 0.998047 2.07213V0.772949C1.36466 0.772949 1.73128 0.772949 2.09789 0.772949Z" fill="white"/>
<path d="M21.992 26.3649C21.992 32.3619 21.992 38.36 21.991 44.3571C21.991 45.2526 21.4692 45.8947 20.6929 45.9778C19.8054 46.072 19.1022 45.497 19.004 44.5955C18.992 44.4803 18.996 44.3621 18.996 44.2459C18.996 32.3179 18.996 20.3888 18.996 8.46078C18.996 7.60834 19.3185 7.05041 19.9456 6.80099C20.8732 6.43137 21.8949 7.06543 21.988 8.07313C22.0031 8.2384 21.993 8.40568 21.993 8.57297C21.993 14.5039 21.993 20.4349 21.993 26.3659L21.992 26.3649Z" fill="white"/>
<path d="M33.9375 26.3469C33.9415 28.803 31.9431 30.8194 29.476 30.8484C27.0148 30.8775 24.9714 28.8361 24.9724 26.3489C24.9734 23.8717 26.9618 21.8674 29.4249 21.8613C31.9231 21.8543 33.9335 23.8537 33.9375 26.3479V26.3469ZM29.4369 24.8524C28.6145 24.8574 27.9534 25.5185 27.9484 26.3409C27.9434 27.1763 28.6356 27.8674 29.467 27.8574C30.2683 27.8474 30.9585 27.1582 30.9655 26.3599C30.9735 25.5305 30.2813 24.8484 29.4369 24.8534V24.8524Z" fill="white"/>
<path d="M16.0233 38.333C16.0364 40.8171 14.012 42.8606 11.5408 42.8556C9.08569 42.8506 7.07832 40.8372 7.07131 38.372C7.0643 35.8929 9.04763 33.8735 11.5018 33.8594C13.9999 33.8454 16.0093 35.8338 16.0233 38.333ZM11.6109 36.8595C10.7625 36.8344 10.0633 37.4805 10.0333 38.3159C10.0052 39.1063 10.6834 39.8275 11.4837 39.8575C12.3101 39.8886 13.0323 39.2195 13.0644 38.3931C13.0944 37.5977 12.4173 36.8835 11.6109 36.8595Z" fill="white"/>
<path d="M33.9376 14.3338C33.9476 16.808 31.9012 18.8554 29.434 18.8384C26.9809 18.8214 24.9876 16.84 24.9715 14.403C24.9555 11.8877 26.9308 9.86934 29.415 9.86232C31.9232 9.85531 33.9266 11.8366 33.9366 14.3348L33.9376 14.3338ZM27.9475 14.3238C27.9365 15.1542 28.6307 15.8604 29.4551 15.8574C30.2514 15.8544 30.9486 15.1662 30.9666 14.3669C30.9846 13.5435 30.2895 12.8453 29.4501 12.8453C28.6287 12.8453 27.9586 13.5054 27.9475 14.3238Z" fill="white"/>
<path d="M16.0231 26.3629C16.0151 28.8321 14.0177 30.8375 11.5556 30.8495C9.08646 30.8615 7.06206 28.8221 7.07107 26.3319C7.08009 23.8307 9.07945 21.8514 11.5867 21.8604C14.0488 21.8694 16.0301 23.8808 16.0231 26.3629ZM11.5516 24.8514C10.7332 24.8494 10.0541 25.5065 10.032 26.3209C10.011 27.1322 10.7212 27.8555 11.5436 27.8565C12.363 27.8585 13.0802 27.1382 13.0651 26.3279C13.0501 25.5155 12.371 24.8534 11.5516 24.8514Z" fill="white"/>
<path d="M16.0234 14.3496C16.0204 16.8248 14.04 18.8172 11.5639 18.8372C9.09071 18.8572 7.06631 16.8288 7.07032 14.3356C7.07433 11.8314 9.06768 9.85309 11.5779 9.86111C14.049 9.86912 16.0254 11.8645 16.0224 14.3507L16.0234 14.3496ZM11.5338 12.8441C10.7184 12.8501 10.0393 13.5243 10.0323 14.3336C10.0253 15.149 10.7455 15.8662 11.5619 15.8562C12.3592 15.8462 13.0544 15.151 13.0644 14.3547C13.0744 13.5303 12.3722 12.8381 11.5338 12.8441Z" fill="white"/>
<path d="M46.6648 43.643H33.5417C33.4385 41.4072 36.675 38.5214 39.4426 38.3691C42.9936 38.1728 46.4784 40.7 46.6648 43.643Z" fill="#CACACA"/>
<path d="M46.6625 46.7063C46.4882 49.1714 43.4931 51.7788 40.6393 51.9481C37.2216 52.1504 34.1224 49.8977 33.4863 46.7063H46.6625Z" fill="#CACACA"/>
<path d="M29.425 36.8595C30.2734 36.8504 30.9666 37.5216 30.9666 38.353C30.9666 39.1513 30.2814 39.8445 29.4791 39.8585C28.6417 39.8725 27.9495 39.1944 27.9485 38.358C27.9485 37.5346 28.6046 36.8695 29.425 36.8605V36.8595Z" fill="#CACACA"/>
<path d="M29.4368 24.8523C30.2822 24.8473 30.9734 25.5295 30.9653 26.3589C30.9573 27.1582 30.2682 27.8474 29.4668 27.8564C28.6354 27.8664 27.9433 27.1752 27.9483 26.3398C27.9533 25.5174 28.6144 24.8563 29.4368 24.8513V24.8523Z" fill="#CACACA"/>
<path d="M11.61 36.8595C12.4164 36.8836 13.0935 37.5978 13.0635 38.3931C13.0314 39.2195 12.3102 39.8876 11.4828 39.8576C10.6825 39.8275 10.0033 39.1063 10.0324 38.316C10.0624 37.4806 10.7626 36.8355 11.61 36.8595Z" fill="#CACACA"/>
<path d="M27.9472 14.3237C27.9582 13.5053 28.6283 12.8452 29.4497 12.8452C30.2891 12.8452 30.9843 13.5434 30.9662 14.3668C30.9482 15.1661 30.251 15.8543 29.4547 15.8573C28.6303 15.8603 27.9361 15.1541 27.9472 14.3237Z" fill="#CACACA"/>
<path d="M11.5508 24.8523C12.3701 24.8543 13.0483 25.5164 13.0643 26.3288C13.0793 27.1391 12.3631 27.8594 11.5428 27.8574C10.7204 27.8553 10.0102 27.1331 10.0312 26.3218C10.0533 25.5074 10.7324 24.8503 11.5508 24.8523Z" fill="#CACACA"/>
<path d="M11.5328 12.8453C12.3712 12.8392 13.0734 13.5314 13.0634 14.3558C13.0544 15.1521 12.3582 15.8473 11.5609 15.8573C10.7445 15.8673 10.0243 15.1501 10.0313 14.3348C10.0383 13.5254 10.7175 12.8513 11.5328 12.8453Z" fill="#CACACA"/>
</svg>
