<?xml version="1.0" encoding="UTF-8"?>
<svg id="Layer_2" data-name="Layer 2" xmlns="http://www.w3.org/2000/svg" viewBox="0 0 511.87 511.09">
  <g id="Layer_3" data-name="Layer 3">
    <path d="M0,332.35c2.96-14.19,12.03-24.29,21.95-34.14,45.91-45.59,91.65-91.35,137.29-137.21,13.47-13.54,29.07-22.39,48.2-24.67,11.29-1.35,22.15,.58,32.89,3.8,6.16,1.85,12.93,6.24,18.3,4.92,5.42-1.33,9.51-8.26,14.07-12.85,1.51-1.52,2.69-3.37,3.64-4.58,35.83,35.83,70.93,70.93,106.57,106.58-4.55,4.51-9.71,9.85-15.15,14.89-2.43,2.26-2.71,4.22-1.77,7.4,3.09,10.46,6.66,20.93,8.26,31.66,3.03,20.28-3.39,38.36-15.92,54.3-3.16,4.02-6.9,7.59-11.92,13.06-1.14-2.08-1.72-4.03-2.98-5.29-29.46-29.58-58.98-59.1-88.5-88.62-9.66-9.66-17.02-9.62-26.79,.15-35.4,35.4-70.79,70.81-106.18,106.21-9.8,9.81-9.84,17.05-.12,26.77,29.39,29.41,58.79,58.82,88.22,88.19,1.28,1.28,2.94,2.18,4.29,3.15-17.64,23.61-41.53,31.92-65.31,18.46-3.98-2.26-7.59-5.42-10.86-8.67-41.12-40.97-82.11-82.08-123.23-123.04-7.78-7.75-12.48-16.97-14.95-27.5v-12.97Z"/>
    <path d="M478.07,0c3.83,2.79,7.94,5.27,11.42,8.44,5.53,5.02,10.72,10.43,15.91,15.81,6.56,6.8,7.52,13.47,2.51,21.13-18.43,28.21-37.04,56.31-55.6,84.44-.25,.39-.68,.66-.59,.58-23.73-23.73-47.38-47.39-71.45-71.46,29.98-19.46,60.4-39.2,90.81-58.94,2.33,0,4.66,0,6.99,0Z"/>
    <path d="M511.87,450.78c-.71,30.96-24.63,57.36-55.13,60.07-31.27,2.78-59.39-18.94-64.63-49.72-1.78-10.44-.76-20.56,2.7-30.41,13.68-38.94,27.49-77.84,41.28-116.75,2.83-7.99,7.43-11.48,14.92-11.52,7.69-.04,12.35,3.5,15.27,11.75,13.72,38.76,27.52,77.48,41,116.32,2.26,6.5,3.1,13.49,4.59,20.26Z"/>
    <path d="M152.38,380.74c29.26-29.26,59.33-59.33,89.03-89.03,27.77,27.77,55.81,55.81,83.44,83.45-29.53,29.53-59.58,59.58-89.03,89.03-27.39-27.39-55.5-55.5-83.44-83.45Z"/>
    <path d="M319.46,47.77c5.95,1.02,9.72,3.85,13.22,7.36,26.09,26.13,52.21,52.23,78.33,78.34,14.82,14.82,29.65,29.63,44.46,44.47,9.03,9.05,9.05,16.78,.08,25.77-5.64,5.65-11.29,11.3-16.95,16.93-8.71,8.66-16.68,8.68-25.42-.04-38.01-37.98-75.99-75.98-113.98-113.97-3.53-3.53-7.15-6.97-10.55-10.62-6.54-7.03-6.45-15.28,.27-22.18,6.5-6.67,12.94-13.43,19.83-19.68,3.02-2.73,7.11-4.29,10.71-6.37Z"/>
  </g>
</svg>