<svg width="55" height="56" viewBox="0 0 55 56" fill="none" xmlns="http://www.w3.org/2000/svg">
<path d="M0.991943 55.1305C1.06345 54.3578 1.14991 53.5861 1.20327 52.8112C1.29186 51.5198 1.36016 50.2273 1.43915 48.8921H27.5039C27.6352 50.9819 27.7675 53.077 27.9031 55.2372H0.991943C0.991943 55.202 0.991943 55.1657 0.991943 55.1305Z" fill="#CACACA"/>
<path d="M18.0367 0.697754C18.3163 2.97966 18.5959 5.26157 18.8809 7.5819H10.0649C10.1877 6.59784 10.3126 5.62339 10.43 4.64893C10.589 3.33187 10.7427 2.01481 10.8996 0.697754C13.2786 0.697754 15.6576 0.697754 18.0367 0.697754Z" fill="#CACACA"/>
<path d="M27.3033 45.6218H1.64624C2.15535 37.4729 2.66232 29.3539 3.17249 21.1943H25.7749C26.284 29.324 26.792 37.4463 27.3033 45.6218ZM16.0677 34.985H19.2184V31.7884H16.0442V28.6378H12.8797V31.8173H9.74178V35.0085H12.9053V38.156H16.0677V34.985Z" fill="#CACACA"/>
<path d="M43.6013 55.2351C41.2063 55.2351 38.8112 55.2522 36.4172 55.2287C35.1503 55.2159 34.1396 54.6758 33.5846 53.5018C33.0189 52.3021 33.1107 51.1195 33.9155 50.0426C34.4918 49.271 35.3104 48.8675 36.2561 48.8632C41.1518 48.8419 46.0486 48.8387 50.9444 48.8611C52.6766 48.8686 53.9873 50.2828 53.9894 52.0428C53.9915 53.7942 52.6766 55.2052 50.9454 55.2265C48.4981 55.2564 46.0497 55.234 43.6013 55.234V55.2361V55.2351Z" fill="#CACACA"/>
<path d="M24.9049 17.9274H4.02515C4.12227 17.7502 4.19165 17.6125 4.27169 17.4812C5.54286 15.3936 6.82256 13.3113 8.08092 11.2161C8.25916 10.9184 8.44487 10.8095 8.79282 10.8106C12.5882 10.8234 16.3846 10.8148 20.1799 10.8308C20.3849 10.8308 20.6816 10.9472 20.7798 11.1062C22.1459 13.3017 23.4865 15.5142 24.8313 17.7235C24.858 17.7662 24.8676 17.8196 24.906 17.9274H24.9049Z" fill="#CACACA"/>
<path d="M46.5648 36.1026C49.168 35.8422 51.4328 37.568 51.7903 40.0602C52.1788 42.7744 50.5693 45.084 47.9619 45.5472C47.6844 45.5963 47.4005 45.6433 47.1198 45.6433C44.2626 45.6508 41.4054 45.6636 38.5493 45.6412C37.2589 45.6305 36.2375 45.0723 35.6921 43.8673C35.1457 42.6602 35.2534 41.4733 36.0785 40.4124C36.6815 39.6376 37.5236 39.28 38.4938 39.2672C39.9133 39.248 41.3328 39.2608 42.7524 39.2608C45.0802 39.2608 46.14 38.3909 46.5648 36.1016V36.1026Z" fill="#CACACA"/>
<path d="M16.0686 34.985V38.156H12.9062V35.0085H9.74268V31.8172H12.8806V28.6377H16.0451V31.7884H19.2193V34.985H16.0686Z" fill="white"/>
</svg>
