<?xml version="1.0" encoding="UTF-8"?>
<svg id="Layer_2" data-name="Layer 2" xmlns="http://www.w3.org/2000/svg" viewBox="0 0 456 456">
  <defs>
    <style>
      .cls-1 {
        fill: #fff;
      }
    </style>
  </defs>
  <g id="Layer_3" data-name="Layer 3">
    <path class="cls-1" d="M0,383.16V0C119.4,0,238.81,0,358.21,0c-7.33,4.11-14.66,8.21-22.42,12.56,30.72,53.21,61.23,106.06,91.9,159.18,5.03-2.87,9.78-5.54,14.49-8.28,13.61-7.93,16.37-18.45,8.45-32.19-22.23-38.54-44.56-77.02-66.65-115.64C380.09,8.84,375.71,2.94,368.19,0h87.81V456c-152,0-304,0-456,0,0-22.28,0-44.57,0-66.85,.35,1.06,.86,2.1,1.04,3.19,5.3,31.48,31.31,57.63,62.97,61.48,14.59,1.77,29.51,1.09,44.28,1.12,32.1,.05,61.03-20.73,71.16-51.19,2.15-6.45,3.16-13.28,4.84-20.58H0ZM211.4,84.49c30.73,53.21,61.23,106.04,91.89,159.14,39.44-22.77,78.44-45.3,117.65-67.94-30.82-53.37-61.31-106.17-91.89-159.13-39.46,22.79-78.26,45.19-117.65,67.94Zm-6.78,3.9c-19.37,12.19-31.41,28.8-35.85,50.59-3.69,18.13-11.65,33.83-25.25,46.43-4.48,4.15-9.5,7.72-14.54,11.77,11.84,20.49,23.75,41.11,35.64,61.7,22.97-12,48.03-13.93,73.33-4.7,10.9,3.98,22.5,4.18,33.97,2.06,8.59-1.59,16.89-4.11,24.44-8.97-30.65-53.07-61.02-105.68-91.74-158.87Zm-20.15,326.69c13.45,0,27.24,0,41.03,0,46.06,0,92.12,.05,138.18-.03,18.13-.03,34.14-14.68,34.79-31.6H192.31c-2.64,10.64-5.17,20.88-7.83,31.63ZM106.84,238.34c-44.67,35.24-69.35,80.32-74.52,136.57h58.52c-10.51-43.07-.58-80.66,29.62-113.02-4.43-7.65-8.81-15.24-13.62-23.55Zm3.6-48.18c-9.99,1.14-15.97,10.66-11.34,18.86,13.12,23.27,26.56,46.37,40.06,69.43,3.47,5.92,10.42,7.6,16.02,4.52,5.81-3.2,8.22-10.24,4.77-16.3-13.29-23.37-26.7-46.69-40.48-69.78-1.78-2.98-5.96-4.53-9.03-6.74Z"/>
    <path d="M0,383.16H184.3c-1.68,7.3-2.69,14.13-4.84,20.58-10.13,30.47-39.06,51.25-71.16,51.19-14.77-.02-29.69,.66-44.28-1.12-31.67-3.85-57.67-30-62.97-61.48-.18-1.09-.69-2.13-1.04-3.19,0-2,0-3.99,0-5.99Z"/>
    <path d="M368.19,0c7.51,2.94,11.9,8.84,15.79,15.63,22.09,38.62,44.42,77.1,66.65,115.64,7.93,13.74,5.16,24.26-8.45,32.19-4.71,2.74-9.46,5.41-14.49,8.28-30.67-53.13-61.18-105.97-91.9-159.18,7.75-4.34,15.08-8.45,22.42-12.56,3.33,0,6.65,0,9.98,0Z"/>
    <path d="M211.4,84.49c39.4-22.75,78.19-45.15,117.65-67.94,30.58,52.96,61.07,105.76,91.89,159.13-39.21,22.64-78.21,45.17-117.65,67.94-30.66-53.1-61.16-105.93-91.89-159.14Zm131.95,52.85c5.43-3.13,10.4-6.1,15.48-8.87,3.64-1.99,4.52-4.45,2.35-8.12-4.8-8.14-9.55-16.32-14.17-24.56-2.01-3.58-4.47-3.95-7.79-1.99-5.11,3.02-10.28,5.94-15.75,9.09-3.06-5.25-6.13-10.16-8.82-15.26-2.24-4.26-4.82-4.68-8.82-2.22-7.63,4.68-15.42,9.12-23.26,13.43-4.02,2.21-5.12,4.57-2.42,8.71,3.13,4.81,5.75,9.95,8.78,15.27-5.41,3.15-10.33,6.18-15.41,8.92-3.67,1.98-4.6,4.32-2.38,8.04,4.83,8.12,9.56,16.31,14.17,24.56,1.97,3.54,4.29,4.15,7.72,2.09,5.1-3.07,10.3-5.96,15.85-9.15,3.04,5.25,6.09,10.16,8.78,15.26,2.21,4.2,4.76,4.76,8.79,2.29,7.77-4.76,15.69-9.31,23.68-13.7,4.1-2.25,4.25-4.89,2.03-8.54-3-4.93-5.78-9.98-8.8-15.24Z"/>
    <path d="M204.63,88.39c30.71,53.19,61.09,105.8,91.74,158.87-7.55,4.86-15.85,7.38-24.44,8.97-11.46,2.12-23.07,1.92-33.97-2.06-25.3-9.23-50.37-7.29-73.33,4.7-11.89-20.59-23.8-41.2-35.64-61.7,5.04-4.05,10.06-7.62,14.54-11.77,13.61-12.6,21.56-28.3,25.25-46.43,4.44-21.79,16.48-38.41,35.85-50.59Z"/>
    <path d="M184.47,415.07c2.66-10.75,5.2-20.99,7.83-31.63h206.17c-.65,16.92-16.66,31.57-34.79,31.6-46.06,.07-92.12,.03-138.18,.03-13.79,0-27.59,0-41.03,0Z"/>
    <path d="M106.84,238.34c4.8,8.31,9.19,15.9,13.62,23.55-30.2,32.36-40.12,69.95-29.62,113.02H32.32c5.17-56.25,29.85-101.32,74.52-136.57Z"/>
    <path d="M110.44,190.16c3.07,2.21,7.25,3.76,9.03,6.74,13.78,23.09,27.19,46.4,40.48,69.78,3.44,6.06,1.04,13.1-4.77,16.3-5.6,3.08-12.55,1.4-16.02-4.52-13.49-23.06-26.93-46.16-40.06-69.43-4.63-8.2,1.35-17.73,11.34-18.86Z"/>
    <path class="cls-1" d="M343.36,137.34c3.02,5.25,5.81,10.31,8.8,15.24,2.22,3.65,2.07,6.29-2.03,8.54-7.99,4.39-15.91,8.94-23.68,13.7-4.03,2.47-6.58,1.91-8.79-2.29-2.69-5.1-5.74-10.01-8.78-15.26-5.55,3.19-10.76,6.09-15.85,9.15-3.42,2.06-5.74,1.44-7.72-2.09-4.61-8.25-9.34-16.44-14.17-24.56-2.22-3.73-1.29-6.06,2.38-8.04,5.07-2.74,9.99-5.77,15.41-8.92-3.02-5.32-5.64-10.46-8.78-15.27-2.7-4.14-1.59-6.5,2.42-8.71,7.84-4.31,15.63-8.75,23.26-13.43,4-2.45,6.57-2.03,8.82,2.22,2.69,5.11,5.76,10.01,8.82,15.26,5.47-3.15,10.64-6.07,15.75-9.09,3.33-1.96,5.79-1.59,7.79,1.99,4.62,8.25,9.36,16.42,14.17,24.56,2.17,3.67,1.29,6.13-2.35,8.12-5.08,2.77-10.05,5.75-15.48,8.87Zm-52.36,21.11c4.43-2.52,8.6-4.85,12.73-7.25q8.03-4.66,12.77,3.56c2.37,4.09,4.79,8.16,7.34,12.49,7.26-4.21,13.92-8.08,20.76-12.05-3.23-5.6-6.05-10.67-9.06-15.63-2.2-3.62-1.55-6.06,2.24-8.09,5.23-2.81,10.3-5.94,15.6-9.03-4.12-7.11-8.01-13.82-12.04-20.77-5.39,3.09-10.45,5.88-15.39,8.87-3.77,2.28-6.4,1.66-8.52-2.3-2.72-5.09-5.73-10.02-8.81-15.36-7.07,4.08-13.77,7.94-20.82,12.01,3.02,5.28,5.82,10.13,8.59,15.01,2.91,5.13,2.68,6.01-2.39,9.02-4.93,2.92-9.89,5.81-14.96,8.77,4.05,7.02,7.78,13.48,11.97,20.74Z"/>
    <path d="M290.99,158.45c-4.19-7.26-7.92-13.72-11.97-20.74,5.06-2.97,10.02-5.85,14.96-8.77,5.07-3,5.3-3.88,2.39-9.02-2.76-4.87-5.57-9.73-8.59-15.01,7.05-4.07,13.74-7.93,20.82-12.01,3.08,5.34,6.09,10.27,8.81,15.36,2.12,3.97,4.75,4.59,8.52,2.3,4.94-2.99,10-5.78,15.39-8.87,4.03,6.95,7.92,13.66,12.04,20.77-5.3,3.09-10.36,6.22-15.6,9.03-3.79,2.03-4.43,4.47-2.24,8.09,3.01,4.96,5.83,10.03,9.06,15.63-6.84,3.97-13.51,7.84-20.76,12.05-2.55-4.33-4.97-8.4-7.34-12.49q-4.76-8.23-12.77-3.56c-4.13,2.4-8.3,4.73-12.73,7.25Z"/>
  </g>
</svg>