<svg width="56" height="56" viewBox="0 0 56 56" fill="none" xmlns="http://www.w3.org/2000/svg">
<path d="M0.991211 36.1706C1.30714 34.656 2.27521 33.578 3.33401 32.5267C8.23413 27.6607 13.1161 22.7766 17.9874 17.8818C19.4251 16.4367 21.0901 15.4921 23.132 15.2487C24.337 15.1046 25.4961 15.3106 26.6424 15.6543C27.2999 15.8518 28.0225 16.3203 28.5956 16.1795C29.1741 16.0375 29.6107 15.2978 30.0974 14.8079C30.2585 14.6457 30.3845 14.4482 30.4859 14.3191C34.3101 18.1433 38.0565 21.8897 41.8604 25.6947C41.3748 26.1761 40.8241 26.746 40.2434 27.284C39.9841 27.5252 39.9542 27.7344 40.0545 28.0738C40.3843 29.1902 40.7654 30.3077 40.9361 31.453C41.2595 33.6175 40.5743 35.5473 39.2369 37.2486C38.8997 37.6777 38.5005 38.0587 37.9647 38.6425C37.843 38.4205 37.7811 38.2124 37.6466 38.0779C34.5022 34.9207 31.3515 31.77 28.2007 28.6192C27.1697 27.5882 26.3841 27.5924 25.3413 28.6352C21.563 32.4136 17.7857 36.193 14.0084 39.9714C12.9624 41.0184 12.9581 41.7912 13.9956 42.8286C17.1325 45.9676 20.2704 49.1067 23.4116 52.2414C23.5482 52.378 23.7254 52.4741 23.8695 52.5776C21.9867 55.0976 19.4368 55.9846 16.8987 54.5479C16.4739 54.3067 16.0886 53.9694 15.7396 53.6225C11.3507 49.2497 6.97574 44.8619 2.58687 40.4901C1.75649 39.6629 1.25484 38.6788 0.991211 37.5549L0.991211 36.1706Z" fill="#CACACA"/>
<path d="M52.0171 0.697754C52.4259 0.99554 52.8646 1.26024 53.236 1.59858C53.8263 2.13438 54.3802 2.71181 54.9341 3.28604C55.6343 4.01182 55.7368 4.72373 55.202 5.54131C53.235 8.55225 51.2486 11.5515 49.2677 14.5539C49.241 14.5955 49.1951 14.6243 49.2047 14.6158C46.6719 12.083 44.1477 9.55768 41.5786 6.98861C44.7785 4.91158 48.0253 2.80467 51.2711 0.697754C51.5197 0.697754 51.7684 0.697754 52.0171 0.697754Z" fill="#CACACA"/>
<path d="M55.6247 48.811C55.5489 52.1155 52.9959 54.9332 49.7405 55.2225C46.403 55.5192 43.4016 53.201 42.8423 49.9157C42.6524 48.8014 42.7612 47.7213 43.1305 46.67C44.5906 42.5138 46.0646 38.3618 47.5365 34.2088C47.8385 33.3561 48.3295 32.9836 49.1289 32.9793C49.9497 32.975 50.4471 33.3529 50.7587 34.2334C52.2231 38.3704 53.696 42.5031 55.1348 46.6486C55.376 47.3424 55.4657 48.0884 55.6247 48.811Z" fill="#CACACA"/>
<path d="M17.2551 41.3355C20.3781 38.2125 23.5876 35.003 26.7576 31.833C29.7216 34.797 32.7144 37.7898 35.6634 40.7399C32.5116 43.8917 29.3042 47.0991 26.1609 50.2424C23.2375 47.3189 20.2373 44.3187 17.2551 41.3355Z" fill="#CACACA"/>
<path d="M35.0883 5.79639C35.7234 5.90525 36.1258 6.20731 36.4993 6.58194C39.284 9.37088 42.0719 12.1566 44.8597 14.9434C46.4415 16.5252 48.0244 18.1059 49.6051 19.6899C50.5689 20.6558 50.571 21.4808 49.6136 22.4404C49.0117 23.0434 48.4086 23.6465 47.8045 24.2474C46.8749 25.1717 46.0242 25.1738 45.0914 24.2431C41.0344 20.1894 36.9807 16.1335 32.9259 12.0787C32.5491 11.7019 32.1628 11.3348 31.7999 10.9452C31.1018 10.1949 31.1114 9.31431 31.8287 8.57786C32.5225 7.86594 33.2098 7.14443 33.9452 6.47734C34.2675 6.18596 34.7041 6.01946 35.0883 5.79745V5.79639Z" fill="#CACACA"/>
</svg>
