<svg width="52" height="52" viewBox="0 0 52 52" fill="none" xmlns="http://www.w3.org/2000/svg">
<g clip-path="url(#clip0_1_559)">
<path d="M0.484741 43.784V0.772949C13.8878 0.772949 27.292 0.772949 40.6951 0.772949C39.8723 1.23431 39.0494 1.69455 38.1784 2.18285C41.6268 8.15586 45.0516 14.0885 48.4944 20.0514C49.0591 19.7292 49.5923 19.4295 50.121 19.1219C51.6488 18.2317 51.9586 17.0508 51.0695 15.5085C48.5742 11.1822 46.0675 6.8627 43.5878 2.52747C43.1512 1.76527 42.6595 1.10297 41.8154 0.772949H51.6723V51.9606C34.6098 51.9606 17.5473 51.9606 0.484741 51.9606C0.484741 49.4595 0.484741 46.9574 0.484741 44.4564C0.52403 44.5754 0.581279 44.6921 0.601485 44.8145C1.19643 48.3482 4.11614 51.2837 7.67009 51.7158C9.30787 51.9145 10.9827 51.8382 12.6407 51.8416C16.244 51.8472 19.4915 49.5145 20.6286 46.0953C20.87 45.3713 20.9834 44.6046 21.1719 43.7851H0.484741V43.784ZM24.2151 10.2572C27.6647 16.2303 31.0884 22.1606 34.5301 28.1213C38.9574 25.5653 43.3353 23.0362 47.7367 20.4948C44.2771 14.5038 40.8545 8.57681 37.4218 2.63187C32.9922 5.19012 28.6368 7.7046 24.2151 10.2584V10.2572ZM23.4541 10.695C21.2797 12.0634 19.9282 13.9279 19.4298 16.3739C19.0156 18.4091 18.122 20.1715 16.5954 21.5859C16.0925 22.0517 15.529 22.4525 14.9632 22.9071C16.2923 25.2072 17.6292 27.5218 18.9639 29.8331C21.5424 28.4861 24.3555 28.2694 27.1955 29.3055C28.419 29.7523 29.7212 29.7748 31.0087 29.5368C31.973 29.3583 32.9047 29.0754 33.7522 28.5299C30.3116 22.5726 26.9025 16.6669 23.4541 10.6962V10.695ZM21.1921 47.3671C22.702 47.3671 24.2499 47.3671 25.7979 47.3671C30.9683 47.3671 36.1387 47.3727 41.3091 47.3638C43.3443 47.3604 45.1414 45.7159 45.2144 43.8166H22.0722C21.7759 45.0109 21.4919 46.1604 21.1933 47.3671H21.1921ZM12.4779 27.5275C7.46354 31.4833 4.69313 36.5437 4.11277 42.8579H10.6819C9.50207 38.0232 10.6167 33.8035 14.0068 30.171C13.5095 29.3123 13.0178 28.4603 12.4779 27.5275ZM12.882 22.1191C11.7606 22.247 11.0893 23.3157 11.6091 24.2362C13.0818 26.8483 14.5905 29.4414 16.1059 32.0299C16.4955 32.6945 17.2756 32.8831 17.9042 32.5373C18.5564 32.1781 18.827 31.3879 18.4397 30.7076C16.9478 28.0842 15.4425 25.4665 13.8957 22.8745C13.6959 22.54 13.2266 22.366 12.882 22.118V22.1191Z" fill="white"/>
<path d="M0.484741 43.7841H21.1731C20.9845 44.6035 20.8711 45.3702 20.6298 46.0943C19.4926 49.5146 16.2451 51.8473 12.6418 51.8405C10.9838 51.8383 9.30899 51.9146 7.67121 51.7148C4.11614 51.2826 1.19755 48.3472 0.602607 44.8134C0.582402 44.6911 0.525152 44.5743 0.485864 44.4554C0.485864 44.2309 0.485864 44.0075 0.485864 43.783L0.484741 43.7841Z" fill="#CACACA"/>
<path d="M41.8154 0.772949C42.6584 1.10297 43.1512 1.76527 43.5878 2.52747C46.0675 6.8627 48.5741 11.1822 51.0695 15.5085C51.9597 17.0508 51.6488 18.2317 50.121 19.1219C49.5923 19.4295 49.0591 19.7292 48.4944 20.0514C45.0516 14.0873 41.6268 8.15586 38.1783 2.18285C39.0483 1.69567 39.8711 1.23431 40.6951 0.772949C41.0689 0.772949 41.4416 0.772949 41.8154 0.772949Z" fill="#CACACA"/>
<path d="M24.2152 10.2574C28.638 7.7036 32.9923 5.18912 37.4218 2.63086C40.8545 8.57581 44.2772 14.5028 47.7368 20.4938C43.3354 23.0352 38.9575 25.5643 34.5302 28.1203C31.0885 22.1596 27.6648 16.2293 24.2152 10.2562V10.2574ZM39.0271 16.19C39.6366 15.8386 40.1945 15.5052 40.7647 15.1943C41.1733 14.9709 41.2721 14.6947 41.0285 14.2828C40.4897 13.369 39.9565 12.4508 39.4379 11.5258C39.2123 11.124 38.9361 11.0824 38.5635 11.3024C37.9898 11.6414 37.4095 11.9692 36.7955 12.3228C36.452 11.7335 36.1073 11.1823 35.8054 10.6098C35.5539 10.1316 35.2643 10.0845 34.8153 10.3606C33.9588 10.886 33.0844 11.3844 32.2043 11.8682C31.753 12.1163 31.6296 12.3812 31.9326 12.8459C32.284 13.3859 32.5781 13.9629 32.9182 14.56C32.3109 14.9136 31.7586 15.2538 31.1884 15.5613C30.7764 15.7836 30.672 16.0463 30.9212 16.4639C31.4634 17.3754 31.9944 18.2947 32.5119 19.2208C32.733 19.6182 32.9934 19.6867 33.3785 19.4554C33.951 19.1108 34.5347 18.7864 35.1577 18.4283C35.4989 19.0176 35.8413 19.5688 36.1433 20.1413C36.3913 20.6127 36.6776 20.6756 37.13 20.3983C38.0022 19.864 38.8912 19.3533 39.7881 18.8605C40.2484 18.6079 40.2652 18.3116 40.016 17.9018C39.6793 17.3484 39.3672 16.7815 39.0282 16.1911L39.0271 16.19Z" fill="#CACACA"/>
<path d="M23.4551 10.695C26.9024 16.6657 30.3127 22.5714 33.7532 28.5287C32.9057 29.0742 31.974 29.3571 31.0097 29.5356C29.7233 29.7736 28.4201 29.7511 27.1965 29.3044C24.3565 28.2683 21.5423 28.486 18.9649 29.8319C17.6303 27.5206 16.2933 25.2071 14.9642 22.9059C15.53 22.4513 16.0935 22.0505 16.5964 21.5847C18.1242 20.1703 19.0166 18.4079 19.4308 16.3728C19.9292 13.9267 21.2807 12.0611 23.4551 10.6938V10.695Z" fill="#CACACA"/>
<path d="M21.192 47.366C21.4906 46.1593 21.7757 45.0098 22.071 43.8154H45.2143C45.1413 45.7148 43.3441 47.3593 41.309 47.3626C36.1386 47.3705 30.9682 47.366 25.7978 47.366C24.2498 47.366 22.7007 47.366 21.192 47.366Z" fill="#CACACA"/>
<path d="M12.478 27.5273C13.0169 28.4602 13.5097 29.3122 14.0069 30.1709C10.6169 33.8034 9.50333 38.023 10.682 42.8578H4.11292C4.69327 36.5435 7.46368 31.4843 12.478 27.5273Z" fill="#CACACA"/>
<path d="M12.8821 22.1191C13.2267 22.3672 13.6959 22.5412 13.8957 22.8757C15.4426 25.4677 16.9479 28.0843 18.4398 30.7088C18.8259 31.389 18.5565 32.1793 17.9043 32.5385C17.2757 32.8843 16.4955 32.6957 16.106 32.0311C14.5917 29.4426 13.083 26.8495 11.6091 24.2374C11.0894 23.3169 11.7607 22.2471 12.8821 22.1203V22.1191Z" fill="#CACACA"/>
<path d="M39.028 16.1899C39.367 16.7792 39.6802 17.3472 40.0158 17.9006C40.265 18.3103 40.2482 18.6067 39.7879 18.8592C38.891 19.352 38.002 19.8628 37.1298 20.3971C36.6774 20.6744 36.3912 20.6115 36.1431 20.1401C35.8411 19.5676 35.4987 19.0164 35.1575 18.4271C34.5345 18.7852 33.9496 19.1107 33.3783 19.4542C32.9944 19.6854 32.7339 19.6158 32.5117 19.2196C31.9942 18.2935 31.4632 17.3741 30.921 16.4626C30.6718 16.0439 30.7762 15.7824 31.1882 15.5601C31.7573 15.2525 32.3096 14.9124 32.918 14.5588C32.579 13.9616 32.2849 13.3846 31.9324 12.8447C31.6294 12.38 31.754 12.1151 32.2041 11.867C33.0842 11.3832 33.9586 10.8848 34.8151 10.3594C35.2641 10.0844 35.5526 10.1315 35.8052 10.6086C36.1072 11.1822 36.4518 11.7323 36.7953 12.3216C37.4093 11.968 37.9896 11.6402 38.5633 11.3012C38.9371 11.0812 39.2132 11.1227 39.4377 11.5246C39.9563 12.4507 40.4884 13.3678 41.0283 14.2815C41.2719 14.6935 41.1732 14.9697 40.7645 15.193C40.1943 15.504 39.6364 15.8385 39.0269 16.1887L39.028 16.1899ZM33.1504 18.5595C33.6477 18.2766 34.1158 18.0151 34.5794 17.7457C35.1803 17.397 35.6581 17.5302 36.0129 18.1453C36.2789 18.6044 36.5506 19.0613 36.8368 19.5474C37.6518 19.0748 38.3994 18.6403 39.1672 18.1947C38.8046 17.5661 38.488 16.997 38.1502 16.4402C37.9032 16.0338 37.9762 15.7599 38.4016 15.532C38.9887 15.2166 39.5578 14.8653 40.1528 14.5184C39.6903 13.7203 39.2536 12.9671 38.8012 12.1869C38.1962 12.5338 37.6282 12.8469 37.0737 13.1826C36.6505 13.4385 36.3552 13.3689 36.1173 12.9244C35.8119 12.353 35.474 11.7996 35.1283 11.2002C34.3347 11.6582 33.5826 12.0915 32.7912 12.5483C33.1302 13.141 33.4445 13.6855 33.7554 14.2333C34.0821 14.8091 34.0563 14.9079 33.4872 15.2458C32.9337 15.5736 32.377 15.898 31.8078 16.2303C32.2625 17.0183 32.6812 17.7434 33.1515 18.5584L33.1504 18.5595Z" fill="white"/>
<path d="M33.1495 18.5596C32.6791 17.7447 32.2604 17.0195 31.8058 16.2315C32.3738 15.8981 32.9306 15.5748 33.4851 15.247C34.0542 14.9103 34.08 14.8115 33.7534 14.2345C33.4436 13.6878 33.1281 13.1423 32.7891 12.5496C33.5805 12.0927 34.3315 11.6594 35.1262 11.2014C35.472 11.8009 35.8099 12.3543 36.1152 12.9256C36.3532 13.3713 36.6484 13.4409 37.0716 13.1838C37.6261 12.8482 38.1941 12.535 38.7992 12.1881C39.2516 12.9683 39.6882 13.7215 40.1507 14.5196C39.5558 14.8665 38.9878 15.2178 38.3996 15.5333C37.9741 15.7612 37.9023 16.0351 38.1481 16.4414C38.486 16.9982 38.8026 17.5673 39.1651 18.1959C38.3973 18.6416 37.6486 19.076 36.8347 19.5486C36.5485 19.0625 36.2768 18.6057 36.0108 18.1465C35.6546 17.5306 35.1768 17.3974 34.5773 17.7469C34.1137 18.0163 33.6456 18.2779 33.1483 18.5608L33.1495 18.5596Z" fill="#CACACA"/>
</g>
<defs>
<clipPath id="clip0_1_559">
<rect width="51.1876" height="51.1876" fill="white" transform="translate(0.484741 0.772949)"/>
</clipPath>
</defs>
</svg>
