<?xml version="1.0" encoding="UTF-8"?>
<svg id="Layer_2" data-name="Layer 2" xmlns="http://www.w3.org/2000/svg" viewBox="0 0 498 512">
  <defs>
    <style>
      .cls-1 {
        fill: #fff;
      }
    </style>
  </defs>
  <g id="Layer_2-2" data-name="Layer 2">
    <path class="cls-1" d="M0,510c0-170,0-340,0-510C30.99,0,61.91,0,92.83,0c-1.46,12.34-2.9,24.68-4.39,37.02-1.1,9.13-2.27,18.26-3.42,27.48h82.6c-2.67-21.75-5.29-43.12-7.91-64.5,112.75,0,225.49,0,338.3,0V512h-6.11c-162.47,0-324.93,0-487.4-.04-1.5,0-2.99-.62-4.49-.96H252.14c-1.27-20.23-2.51-39.87-3.74-59.45H4.19c-.74,12.52-1.38,24.63-2.21,36.72C1.48,495.53,.67,502.76,0,510Zm246.52-89.09c-4.79-76.61-9.55-152.7-14.32-228.87H20.43c-4.78,76.46-9.53,152.53-14.3,228.87H246.52Zm152.7,90.06v-.02c22.94,0,45.88,.21,68.81-.07,16.23-.2,28.55-13.42,28.52-29.83-.02-16.48-12.3-29.73-28.53-29.81-45.87-.21-91.75-.18-137.62,.02-8.86,.04-16.53,3.82-21.93,11.05-7.54,10.09-8.4,21.18-3.1,32.41,5.2,11.01,14.66,16.07,26.54,16.18,22.44,.22,44.88,.06,67.31,.06ZM224.05,161.43c-.36-1.01-.45-1.5-.7-1.91-12.6-20.7-25.15-41.43-37.96-62-.93-1.49-3.7-2.57-5.62-2.58-35.56-.15-71.13-.07-106.69-.19-3.26-.01-5,1.01-6.67,3.8-11.78,19.63-23.77,39.15-35.69,58.7-.75,1.23-1.39,2.51-2.31,4.18H224.05Zm202.94,170.28c-3.98,21.45-13.91,29.59-35.72,29.6-13.3,0-26.6-.12-39.9,.06-9.09,.12-16.98,3.46-22.63,10.73-7.73,9.94-8.74,21.06-3.62,32.37,5.11,11.29,14.68,16.52,26.77,16.62,26.77,.21,53.53,.09,80.3,.02,2.63,0,5.29-.44,7.89-.9,24.43-4.34,39.51-25.99,35.87-51.41-3.35-23.35-24.57-39.52-48.96-37.08Z"/>
    <path d="M0,510c.67-7.24,1.48-14.47,1.98-21.73,.83-12.1,1.47-24.21,2.21-36.72H248.4c1.23,19.58,2.47,39.21,3.74,59.45H0c0-.33,0-.67,0-1Z"/>
    <path d="M159.7,0c2.62,21.38,5.24,42.76,7.91,64.5H85.01c1.15-9.22,2.32-18.35,3.42-27.48C89.92,24.68,91.36,12.34,92.83,0c22.29,0,44.58,0,66.87,0Z"/>
    <path d="M246.52,420.91H6.13c4.77-76.35,9.52-152.42,14.3-228.87H232.2c4.77,76.17,9.53,152.27,14.32,228.87Zm-105.27-99.66h29.52v-29.95h-29.74v-29.52h-29.65v29.79h-29.4v29.9h29.64v29.49h29.63v-29.71Z"/>
    <path d="M399.22,510.98c-22.44,0-44.88,.16-67.31-.06-11.87-.12-21.34-5.18-26.54-16.18-5.3-11.24-4.44-22.32,3.1-32.41,5.4-7.23,13.07-11.01,21.93-11.05,45.87-.2,91.75-.23,137.62-.02,16.23,.07,28.51,13.32,28.53,29.81,.02,16.41-12.3,29.63-28.52,29.83-22.93,.28-45.87,.07-68.81,.07v.02Z"/>
    <path d="M224.05,161.43H28.42c.91-1.66,1.56-2.95,2.31-4.18,11.91-19.56,23.9-39.07,35.69-58.7,1.67-2.79,3.41-3.81,6.67-3.8,35.56,.12,71.13,.04,106.69,.19,1.92,0,4.7,1.09,5.62,2.58,12.8,20.57,25.36,41.3,37.96,62,.25,.4,.34,.9,.7,1.91Z"/>
    <path d="M426.99,331.72c24.39-2.44,45.61,13.73,48.96,37.08,3.64,25.43-11.44,47.07-35.87,51.41-2.6,.46-5.26,.9-7.89,.9-26.77,.07-53.54,.19-80.3-.02-12.09-.1-21.66-5.33-26.77-16.62-5.12-11.31-4.11-22.43,3.62-32.37,5.65-7.26,13.54-10.61,22.63-10.73,13.3-.18,26.6-.06,39.9-.06,21.81,0,31.74-8.15,35.72-29.6Z"/>
    <path class="cls-1" d="M141.26,321.25v29.71h-29.63v-29.49h-29.64v-29.9h29.4v-29.79h29.65v29.52h29.74v29.95h-29.52Z"/>
  </g>
</svg>