<?xml version="1.0" encoding="UTF-8"?>
<svg id="Layer_2" data-name="Layer 2" xmlns="http://www.w3.org/2000/svg" viewBox="0 0 455.9 511.02">
  <defs>
    <style>
      .cls-1 {
        fill: #fff;
      }
    </style>
  </defs>
  <g id="Layer_3" data-name="Layer 3">
    <path d="M0,498.03V12.97C1.78,7.06,5.6,2.88,10.98,0H377.18c8.52,4.12,11.01,11.01,10.99,20.24-.21,106.11-.13,212.22-.13,318.33v6.52c-22.47,1.06-42.12,8.18-59.69,22.19-3.02-12.85-9.37-23.07-20.37-29.94-10.97-6.85-22.78-8.84-35.34-5.48-21.6,5.77-35.27,25.5-33.13,48.22,.99,10.43,5.43,19.47,12.97,26.82,11.96,11.65,26.4,15.12,42.85,11.98-7.65,34.77,.47,64.95,24.15,91.97h-6.86c-97.27,0-194.55-.09-291.82,.13-10.19,.02-17.34-3.06-20.8-12.96ZM209.59,255.49c0-59.21,0-118.42,0-177.63,0-1.66,.1-3.34-.05-4.99-.93-10.06-11.12-16.38-20.39-12.7-6.26,2.49-9.47,8.06-9.48,16.57,0,119.08,0,238.17,0,357.25,0,1.16-.05,2.34,.08,3.49,.98,9,8,14.74,16.86,13.8,7.76-.82,12.96-7.24,12.96-16.18,.02-59.87,0-119.75,.01-179.62Zm119.25-.18c-.04-24.9-20.11-44.85-45.05-44.79-24.59,.07-44.44,20.08-44.45,44.8-.01,24.83,20.38,45.21,44.96,44.92,24.63-.29,44.58-20.42,44.54-44.94Zm-178.84,119.66c-.14-24.95-20.2-44.8-45.14-44.66-24.5,.14-44.3,20.3-44.23,45.05,.07,24.6,20.11,44.7,44.62,44.76,24.67,.05,44.88-20.34,44.75-45.15Zm178.85-239.6c-.11-24.94-20.1-44.72-45.14-44.65-24.81,.07-44.53,20.22-44.36,45.33,.16,24.33,20.06,44.12,44.55,44.28,24.63,.17,45.06-20.26,44.96-44.97Zm-178.85,120.1c.08-24.78-19.71-44.86-44.29-44.95-25.03-.09-44.99,19.67-45.08,44.64-.09,24.85,20.12,45.21,44.77,45.1,24.58-.12,44.52-20.14,44.6-44.79Zm0-119.93c.03-24.81-19.7-44.74-44.37-44.82-25.07-.08-44.96,19.67-45,44.67-.04,24.89,20.17,45.14,44.86,44.94,24.72-.2,44.49-20.09,44.52-44.8Z"/>
    <path class="cls-1" d="M10.98,0C5.6,2.88,1.78,7.06,0,12.97V0c3.66,0,7.32,0,10.98,0Z"/>
    <path class="cls-1" d="M209.59,255.49c0,59.87,0,119.75-.01,179.62,0,8.94-5.21,15.35-12.96,16.18-8.86,.94-15.88-4.8-16.86-13.8-.12-1.15-.08-2.33-.08-3.49,0-119.08,0-238.17,0-357.25,0-8.51,3.22-14.08,9.48-16.57,9.26-3.69,19.46,2.64,20.39,12.7,.15,1.65,.05,3.32,.05,4.99,0,59.21,0,118.42,0,177.63Z"/>
    <path class="cls-1" d="M328.84,255.31c.04,24.52-19.91,44.65-44.54,44.94-24.57,.29-44.97-20.09-44.96-44.92,.01-24.73,19.86-44.74,44.45-44.8,24.94-.07,45.01,19.89,45.05,44.79Zm-44.93-14.92c-8.21,.05-14.81,6.65-14.86,14.86-.05,8.34,6.86,15.24,15.16,15.14,8-.1,14.89-6.98,14.96-14.95,.08-8.28-6.83-15.09-15.26-15.04Z"/>
    <path class="cls-1" d="M150,374.97c.13,24.8-20.08,45.2-44.75,45.15-24.51-.05-44.55-20.15-44.62-44.76-.07-24.75,19.73-44.91,44.23-45.05,24.94-.14,45,19.71,45.14,44.66Zm-44.05-14.71c-8.47-.25-15.45,6.2-15.75,14.54-.28,7.89,6.49,15.09,14.48,15.39,8.25,.31,15.46-6.37,15.78-14.62,.3-7.94-6.46-15.07-14.51-15.31Z"/>
    <path class="cls-1" d="M328.84,135.38c.1,24.7-20.33,45.14-44.96,44.97-24.49-.17-44.39-19.95-44.55-44.28-.16-25.11,19.56-45.26,44.36-45.33,25.04-.07,45.04,19.71,45.14,44.65Zm-59.8-.1c-.11,8.29,6.82,15.34,15.05,15.31,7.95-.03,14.91-6.9,15.09-14.88,.18-8.22-6.76-15.19-15.14-15.19-8.2,0-14.89,6.59-15,14.76Z"/>
    <path class="cls-1" d="M150,255.47c-.08,24.65-20.02,44.67-44.6,44.79-24.65,.12-44.86-20.24-44.77-45.1,.09-24.97,20.05-44.73,45.08-44.64,24.58,.09,44.36,20.17,44.29,44.95Zm-44.64-15.09c-8.17-.02-14.95,6.54-15.17,14.67-.21,8.1,6.88,15.32,15.09,15.33,8.18,.02,15.34-7.17,15.19-15.26-.15-8.11-6.93-14.72-15.11-14.74Z"/>
    <path class="cls-1" d="M150,135.54c-.03,24.71-19.8,44.6-44.52,44.8-24.69,.2-44.9-20.05-44.86-44.94,.04-25,19.94-44.75,45-44.67,24.67,.08,44.4,20,44.37,44.82Zm-44.82-15.03c-8.14,.06-14.92,6.79-14.99,14.87-.07,8.14,7.12,15.3,15.27,15.2,7.96-.1,14.9-7.04,15-14.99,.1-8.23-6.91-15.14-15.28-15.08Z"/>
    <path d="M455.9,427.98h-131.01c-1.03-22.32,31.28-51.13,58.91-52.65,35.45-1.96,70.24,23.27,72.1,52.65Z"/>
    <path d="M455.88,458.56c-1.74,24.61-31.64,50.64-60.13,52.33-34.12,2.02-65.06-20.47-71.41-52.33h131.54Z"/>
    <path d="M283.79,360.26c8.47-.09,15.39,6.61,15.39,14.91,0,7.97-6.84,14.89-14.85,15.03-8.36,.14-15.27-6.63-15.28-14.98,0-8.22,6.55-14.86,14.74-14.95Z"/>
    <path d="M283.91,240.39c8.44-.05,15.34,6.76,15.26,15.04-.08,7.98-6.96,14.86-14.96,14.95-8.3,.1-15.21-6.8-15.16-15.14,.05-8.21,6.65-14.81,14.86-14.86Z"/>
    <path d="M105.94,360.26c8.05,.24,14.81,7.37,14.51,15.31-.32,8.25-7.52,14.92-15.78,14.62-7.99-.3-14.77-7.5-14.48-15.39,.3-8.34,7.29-14.78,15.75-14.54Z"/>
    <path d="M269.04,135.28c.11-8.17,6.8-14.76,15-14.76,8.38,0,15.32,6.97,15.14,15.19-.18,7.98-7.14,14.85-15.09,14.88-8.23,.03-15.16-7.02-15.05-15.31Z"/>
    <path d="M105.35,240.39c8.18,.02,14.95,6.63,15.11,14.74,.15,8.09-7,15.28-15.19,15.26-8.21-.02-15.3-7.23-15.09-15.33,.22-8.13,7-14.69,15.17-14.67Z"/>
    <path d="M105.17,120.52c8.37-.06,15.38,6.85,15.28,15.08-.09,7.95-7.04,14.89-15,14.99-8.15,.1-15.34-7.06-15.27-15.2,.07-8.08,6.85-14.81,14.99-14.87Z"/>
  </g>
</svg>