<?xml version="1.0" encoding="UTF-8"?>
<svg id="Layer_2" data-name="Layer 2" xmlns="http://www.w3.org/2000/svg" viewBox="0 0 450 480">
  <defs>
    <style>
      .cls-1 {
        fill: #fff;
      }
    </style>
  </defs>
  <g id="Layer_2-2" data-name="Layer 2">
    <path class="cls-1" d="M245.45,0h204.55c0,160,0,320,0,480-150,0-300,0-450,0C0,320,0,160,0,0c19.96,0,39.91,0,59.87,0-.57,.31-1.12,.71-1.72,.93-11.3,4.01-17.17,12.17-17.21,24-.02,4.98-.04,9.97,0,14.95,.14,13.52,10.51,23.94,24.04,23.95,58.46,.04,116.92,.03,175.38,0,11.11,0,21.11-6.75,22.86-17.65,1.5-9.32,1.3-19.21,.03-28.6-1.3-9.61-9.17-14.42-17.8-17.59ZM17.17,191.94H288.49v158.97h15.81v-5.25c0-59.21,.02-118.41,0-177.62-.01-22.92-9.47-41.41-26.79-56.04-10.64-8.98-23.14-14.04-37.21-16.37v-15.39H64.77v15.34c-2.03,.45-3.79,.89-5.57,1.24C26.23,103.36,1.06,133.65,1.04,167.19c-.07,95.46-.04,190.92-.02,286.38,0,14.99,10.13,25.4,24.73,25.4,63.02,.03,126.04,.01,189.07,0,1.18,0,2.36-.23,4.11-.41-14.14-12.42-22.73-27.12-25.49-45.16-2.76-18,1.71-34.41,11.23-50.35H17.17V191.94Zm302.87,175.3c-19.01,0-37.61-.06-56.21,.05-3.63,.02-7.31,.39-10.88,1.07-26.11,4.94-44.71,28.72-44.39,56.62,.29,25.55,20.19,49.08,45.66,52.87,9.46,1.41,19.21,.97,28.83,1.1,12.25,.16,24.51,.04,36.99,.04v-111.74Zm16.46,111.74c14.04,0,27.65,.12,41.26-.04,8.45-.1,17.04,.21,25.33-1.14,25.83-4.21,44.97-28.09,44.9-55.07-.07-26.5-19.43-50.57-45.19-54.23-12.73-1.81-25.84-1.01-38.79-1.22-9.09-.15-18.19-.03-27.51-.03v111.73Zm-159.89-167.65c10.65,0,20.6,.04,30.55-.01,6.54-.04,9.29-2.86,9.32-9.47,.04-8.98,.01-17.96,.01-26.93,0-9.37-2.05-11.44-11.32-11.44-9.41,0-18.82,0-28.57,0,0-10.76,.05-20.88-.02-30.99-.04-6.02-2.87-8.86-8.84-8.91-9.64-.07-19.28-.03-28.92-.01-7.58,.01-10.08,2.54-10.09,10.18-.02,9.76,0,19.52,0,29.73-10.61,0-20.71-.04-30.8,.01-6.33,.03-9.06,2.76-9.11,9.12-.06,7.98-.02,15.96-.02,23.94,0,14.01,.79,14.79,15,14.79,8.24,0,16.47,0,24.94,0,0,10.36-.01,19.99,0,29.61,.01,7.63,2.58,10.26,10.03,10.28,9.31,.02,18.62,.03,27.93,0,7.23-.02,9.89-2.66,9.91-9.89,.03-9.78,0-19.56,0-30.01Z"/>
    <path d="M245.45,0c8.63,3.17,16.51,7.98,17.8,17.59,1.27,9.39,1.46,19.28-.03,28.6-1.75,10.89-11.75,17.64-22.86,17.65-58.46,.03-116.92,.04-175.38,0-13.53,0-23.91-10.43-24.04-23.95-.05-4.98-.02-9.97,0-14.95,.04-11.84,5.91-20,17.21-24C58.75,.71,59.29,.31,59.87,0c61.86,0,123.73,0,185.59,0Z"/>
    <path d="M17.17,191.94v191.12H204.66c-9.52,15.94-13.99,32.36-11.23,50.35,2.76,18.03,11.35,32.74,25.49,45.16-1.75,.18-2.93,.41-4.11,.41-63.02,.02-126.04,.03-189.07,0-14.6,0-24.73-10.41-24.73-25.4-.02-95.46-.05-190.92,.02-286.38,.02-33.54,25.2-63.83,58.17-70.36,1.78-.35,3.54-.79,5.57-1.24v-15.34H240.3v15.39c14.07,2.33,26.57,7.39,37.21,16.37,17.32,14.63,26.78,33.12,26.79,56.04,.03,59.21,0,118.41,0,177.62v5.25h-15.81V191.94H17.17Z"/>
    <path d="M320.04,367.24v111.74c-12.48,0-24.74,.12-36.99-.04-9.62-.13-19.37,.31-28.83-1.1-25.47-3.79-45.37-27.32-45.66-52.87-.32-27.89,18.28-51.68,44.39-56.62,3.57-.67,7.25-1.05,10.88-1.07,18.6-.1,37.2-.05,56.21-.05Z"/>
    <path d="M336.5,478.98v-111.73c9.32,0,18.42-.12,27.51,.03,12.94,.22,26.05-.58,38.79,1.22,25.76,3.66,45.12,27.72,45.19,54.23,.07,26.98-19.07,50.86-44.9,55.07-8.29,1.35-16.87,1.03-25.33,1.14-13.61,.17-27.22,.04-41.26,.04Z"/>
    <path d="M176.61,311.33c0,10.44,.03,20.22,0,30.01-.02,7.23-2.68,9.87-9.91,9.89-9.31,.03-18.62,.03-27.93,0-7.45-.02-10.01-2.66-10.03-10.28-.02-9.63,0-19.26,0-29.61-8.47,0-16.7,0-24.94,0-14.21,0-15-.78-15-14.79,0-7.98-.05-15.96,.02-23.94,.05-6.36,2.79-9.09,9.11-9.12,10.1-.05,20.19-.01,30.8-.01,0-10.22-.01-19.98,0-29.73,.01-7.64,2.51-10.17,10.09-10.18,9.64-.02,19.28-.05,28.92,.01,5.96,.04,8.79,2.88,8.84,8.91,.07,10.11,.02,20.23,.02,30.99,9.75,0,19.16,0,28.57,0,9.27,0,11.32,2.08,11.32,11.44,0,8.98,.03,17.96-.01,26.93-.03,6.62-2.79,9.44-9.32,9.47-9.95,.05-19.91,.01-30.55,.01Z"/>
  </g>
</svg>