<svg width="48" height="51" viewBox="0 0 48 51" fill="none" xmlns="http://www.w3.org/2000/svg">
<path d="M26.4135 0.4646C27.3108 0.794182 28.1301 1.29427 28.2642 2.29342C28.3962 3.26969 28.416 4.29795 28.2611 5.26694C28.0791 6.39917 27.0394 7.10096 25.8843 7.102C19.8063 7.10512 13.7283 7.10616 7.65022 7.102C6.24351 7.102 5.16431 6.0176 5.15079 4.61193C5.1456 4.09417 5.14871 3.57536 5.15079 3.05759C5.15495 1.8266 5.76525 0.978208 6.94011 0.562331C7.00249 0.538418 7.05863 0.49683 7.11893 0.4646C13.5505 0.4646 19.9831 0.4646 26.4146 0.4646H26.4135Z" fill="#CACACA"/>
<path d="M2.67969 20.4206V40.2912H22.1729C21.1831 41.9485 20.7184 43.6557 21.0053 45.5261C21.2923 47.4006 22.1854 48.93 23.6555 50.2213C23.4735 50.24 23.3509 50.264 23.2282 50.264C16.676 50.266 10.1239 50.2671 3.57071 50.264C2.05276 50.264 0.99955 49.1816 0.99955 47.6231C0.997471 37.6982 0.994352 27.7733 1.00163 17.8484C1.00371 14.3613 3.62165 11.2121 7.04952 10.5331C7.23459 10.4967 7.41757 10.451 7.62863 10.4042V8.80933H25.8784V10.4094C27.3412 10.6517 28.6408 11.1777 29.7471 12.1114C31.5478 13.6325 32.5313 15.5549 32.5324 17.9378C32.5355 24.0938 32.5324 30.2488 32.5324 36.4048V36.9507H30.8886V20.4206H2.67969Z" fill="#CACACA"/>
<path d="M34.169 38.6464V50.2639C32.8715 50.2639 31.5968 50.2764 30.3232 50.2597C29.323 50.2462 28.3093 50.292 27.3258 50.1454C24.6777 49.7513 22.6087 47.3049 22.5785 44.6485C22.5453 41.7488 24.4791 39.2754 27.1937 38.7618C27.5649 38.6921 27.9475 38.6526 28.3249 38.6505C30.2588 38.6401 32.1926 38.6453 34.169 38.6453V38.6464Z" fill="#CACACA"/>
<path d="M35.8804 50.2638V38.6473C36.8494 38.6473 37.7955 38.6348 38.7406 38.6504C40.0859 38.6733 41.449 38.5901 42.7735 38.7773C45.4518 39.1578 47.4646 41.6593 47.4719 44.4155C47.4792 47.2206 45.4892 49.7034 42.8037 50.1411C41.9418 50.2815 41.0497 50.2482 40.1701 50.2596C38.7551 50.2773 37.3401 50.2638 35.8804 50.2638Z" fill="#CACACA"/>
<path d="M19.2568 32.8335C19.2568 33.919 19.2599 34.9358 19.2568 35.9536C19.2547 36.7053 18.9782 36.9798 18.2265 36.9819C17.2585 36.985 16.2906 36.985 15.3226 36.9819C14.5481 36.9798 14.2819 36.7053 14.2798 35.9131C14.2777 34.9119 14.2798 33.9107 14.2798 32.8346C13.3992 32.8346 12.5435 32.8346 11.6868 32.8346C10.2094 32.8346 10.1273 32.7535 10.1273 31.2969C10.1273 30.4672 10.1221 29.6375 10.1294 28.8078C10.1346 28.1466 10.4194 27.8628 11.0765 27.8596C12.1266 27.8544 13.1757 27.8586 14.2788 27.8586C14.2788 26.796 14.2777 25.7813 14.2788 24.7676C14.2798 23.9733 14.5397 23.7102 15.3278 23.7092C16.3301 23.7071 17.3324 23.704 18.3346 23.7102C18.9543 23.7144 19.2485 24.0097 19.2537 24.6366C19.261 25.6877 19.2558 26.7399 19.2558 27.8586C20.2695 27.8586 21.2478 27.8586 22.2262 27.8586C23.19 27.8586 23.4031 28.0749 23.4031 29.048C23.4031 29.9817 23.4062 30.9153 23.4021 31.8479C23.399 32.5362 23.112 32.8294 22.4331 32.8325C21.3986 32.8377 20.3631 32.8335 19.2568 32.8335Z" fill="#CACACA"/>
</svg>
